<svg width="15" height="12" viewBox="0 0 15 12" fill="none" xmlns="http://www.w3.org/2000/svg">
<path d="M8.24182 0.511351C8.42939 0.323842 8.68375 0.218506 8.94897 0.218506C9.21418 0.218506 9.46854 0.323842 9.65611 0.511351L14.157 5.01225C14.3445 5.19982 14.4499 5.45417 14.4499 5.71939C14.4499 5.98461 14.3445 6.23897 14.157 6.42653L9.65611 10.9274C9.46747 11.1096 9.21482 11.2104 8.95257 11.2082C8.69032 11.2059 8.43945 11.1007 8.25401 10.9152C8.06856 10.7298 7.96337 10.4789 7.96109 10.2167C7.95882 9.95444 8.05963 9.70179 8.24182 9.51315L10.9494 6.71959H1.44747C1.1822 6.71959 0.927791 6.61421 0.740217 6.42664C0.552644 6.23907 0.447266 5.98466 0.447266 5.71939C0.447266 5.45412 0.552644 5.19972 0.740217 5.01214C0.927791 4.82457 1.1822 4.71919 1.44747 4.71919H10.9494L8.24182 1.92563C8.05432 1.73807 7.94898 1.48371 7.94898 1.21849C7.94898 0.953275 8.05432 0.698916 8.24182 0.511351Z" fill="white"/>
</svg>
