<svg width="21" height="19" viewBox="0 0 21 19" fill="none" xmlns="http://www.w3.org/2000/svg">
<path fill-rule="evenodd" clip-rule="evenodd" d="M10.6025 6.85422V9.06107H12.8094L19.43 2.4405L17.2231 0.233643L10.6025 6.85422ZM3.98287 8.10669C3.14437 8.10669 2.34021 8.43978 1.74729 9.03269C1.15438 9.62561 0.821289 10.4298 0.821289 11.2683C0.821289 12.1068 1.15438 12.9109 1.74729 13.5038C2.34021 14.0968 3.14437 14.4298 3.98287 14.4298H17.224C17.5561 14.4298 17.8746 14.5618 18.1094 14.7966C18.3442 15.0314 18.4761 15.3499 18.4761 15.682C18.4761 16.0141 18.3442 16.3326 18.1094 16.5674C17.8746 16.8022 17.5561 16.9341 17.224 16.9341H7.95521C7.42793 16.9341 7.00049 17.3616 7.00049 17.8888C7.00049 18.4161 7.42793 18.8436 7.95521 18.8436H17.224C18.0625 18.8436 18.8667 18.5105 19.4596 17.9176C20.0525 17.3246 20.3856 16.5205 20.3856 15.682C20.3856 14.8435 20.0525 14.0393 19.4596 13.4464C18.8667 12.8535 18.0625 12.5204 17.224 12.5204H3.98287C3.65078 12.5204 3.3323 12.3885 3.09747 12.1537C2.86265 11.9188 2.73073 11.6004 2.73073 11.2683C2.73073 10.9362 2.86265 10.6177 3.09747 10.3829C3.3323 10.1481 3.65078 10.0161 3.98287 10.0161H7.07247C7.59975 10.0161 8.02719 9.58869 8.02719 9.06141C8.02719 8.53413 7.59975 8.10669 7.07247 8.10669H3.98287Z" fill="white"/>
</svg>
