<svg width="24" height="24" viewBox="0 0 24 24" fill="none" xmlns="http://www.w3.org/2000/svg">
<path d="M22.7384 5.4128C23.0026 5.4128 23.256 5.30784 23.4428 5.12101C23.6297 4.93418 23.7346 4.68078 23.7346 4.41657V1.42787C23.7346 1.16366 23.6297 0.91026 23.4428 0.72343C23.256 0.5366 23.0026 0.431641 22.7384 0.431641H19.7497C19.4855 0.431641 19.2321 0.5366 19.0452 0.72343C18.8584 0.91026 18.7535 1.16366 18.7535 1.42787C18.7535 1.55998 18.701 1.68668 18.6076 1.78009C18.5141 1.87351 18.3874 1.92599 18.2553 1.92599C18.1232 1.92599 17.9965 1.87351 17.9031 1.78009C17.8097 1.68668 17.7572 1.55998 17.7572 1.42787C17.7572 1.16366 17.6523 0.91026 17.4654 0.72343C17.2786 0.5366 17.0252 0.431641 16.761 0.431641H13.7723C13.5081 0.431641 13.2547 0.5366 13.0679 0.72343C12.881 0.91026 12.7761 1.16366 12.7761 1.42787C12.7761 1.55998 12.7236 1.68668 12.6302 1.78009C12.5368 1.87351 12.4101 1.92599 12.278 1.92599C12.1458 1.92599 12.0191 1.87351 11.9257 1.78009C11.8323 1.68668 11.7798 1.55998 11.7798 1.42787C11.7798 1.16366 11.6749 0.91026 11.488 0.72343C11.3012 0.5366 11.0478 0.431641 10.7836 0.431641H7.79491C7.53069 0.431641 7.2773 0.5366 7.09047 0.72343C6.90364 0.91026 6.79868 1.16366 6.79868 1.42787C6.79868 1.55998 6.7462 1.68668 6.65278 1.78009C6.55937 1.87351 6.43267 1.92599 6.30056 1.92599C6.16845 1.92599 6.04176 1.87351 5.94834 1.78009C5.85493 1.68668 5.80245 1.55998 5.80245 1.42787C5.80245 1.16366 5.69749 0.91026 5.51066 0.72343C5.32383 0.5366 5.07043 0.431641 4.80622 0.431641H1.81752C1.5533 0.431641 1.29991 0.5366 1.11308 0.72343C0.926249 0.91026 0.821289 1.16366 0.821289 1.42787V4.41657C0.821289 4.68078 0.926249 4.93418 1.11308 5.12101C1.29991 5.30784 1.5533 5.4128 1.81752 5.4128C1.94963 5.4128 2.07633 5.46528 2.16974 5.55869C2.26316 5.65211 2.31564 5.77881 2.31564 5.91091C2.31564 6.04302 2.26316 6.16972 2.16974 6.26313C2.07633 6.35655 1.94963 6.40903 1.81752 6.40903C1.5533 6.40903 1.29991 6.51399 1.11308 6.70082C0.926249 6.88765 0.821289 7.14104 0.821289 7.40526V10.394C0.821289 10.6582 0.926249 10.9116 1.11308 11.0984C1.29991 11.2852 1.5533 11.3902 1.81752 11.3902C1.94963 11.3902 2.07633 11.4427 2.16974 11.5361C2.26316 11.6295 2.31564 11.7562 2.31564 11.8883C2.31564 12.0204 2.26316 12.1471 2.16974 12.2405C2.07633 12.3339 1.94963 12.3864 1.81752 12.3864C1.5533 12.3864 1.29991 12.4914 1.11308 12.6782C0.926249 12.865 0.821289 13.1184 0.821289 13.3827V16.3713C0.821289 16.6356 0.926249 16.889 1.11308 17.0758C1.29991 17.2626 1.5533 17.3676 1.81752 17.3676C1.94963 17.3676 2.07633 17.4201 2.16974 17.5135C2.26316 17.6069 2.31564 17.7336 2.31564 17.8657C2.31564 17.9978 2.26316 18.1245 2.16974 18.2179C2.07633 18.3113 1.94963 18.3638 1.81752 18.3638C1.5533 18.3638 1.29991 18.4688 1.11308 18.6556C0.926249 18.8424 0.821289 19.0958 0.821289 19.36V22.3487C0.821289 22.613 0.926249 22.8663 1.11308 23.0532C1.29991 23.24 1.5533 23.345 1.81752 23.345H4.80622C5.07043 23.345 5.32383 23.24 5.51066 23.0532C5.69749 22.8663 5.80245 22.613 5.80245 22.3487C5.80245 22.2166 5.85493 22.0899 5.94834 21.9965C6.04176 21.9031 6.16845 21.8506 6.30056 21.8506C6.43267 21.8506 6.55937 21.9031 6.65278 21.9965C6.7462 22.0899 6.79868 22.2166 6.79868 22.3487C6.79868 22.613 6.90364 22.8663 7.09047 23.0532C7.2773 23.24 7.53069 23.345 7.79491 23.345H10.7836C11.0478 23.345 11.3012 23.24 11.488 23.0532C11.6749 22.8663 11.7798 22.613 11.7798 22.3487C11.7798 22.2166 11.8323 22.0899 11.9257 21.9965C12.0191 21.9031 12.1458 21.8506 12.278 21.8506C12.4101 21.8506 12.5368 21.9031 12.6302 21.9965C12.7236 22.0899 12.7761 22.2166 12.7761 22.3487C12.7761 22.613 12.881 22.8663 13.0679 23.0532C13.2547 23.24 13.5081 23.345 13.7723 23.345H16.761C17.0252 23.345 17.2786 23.24 17.4654 23.0532C17.6523 22.8663 17.7572 22.613 17.7572 22.3487C17.7572 22.2166 17.8097 22.0899 17.9031 21.9965C17.9965 21.9031 18.1232 21.8506 18.2553 21.8506C18.3874 21.8506 18.5141 21.9031 18.6076 21.9965C18.701 22.0899 18.7535 22.2166 18.7535 22.3487C18.7535 22.613 18.8584 22.8663 19.0452 23.0532C19.2321 23.24 19.4855 23.345 19.7497 23.345H22.7384C23.0026 23.345 23.256 23.24 23.4428 23.0532C23.6297 22.8663 23.7346 22.613 23.7346 22.3487V19.36C23.7346 19.0958 23.6297 18.8424 23.4428 18.6556C23.256 18.4688 23.0026 18.3638 22.7384 18.3638C22.6063 18.3638 22.4796 18.3113 22.3862 18.2179C22.2927 18.1245 22.2403 17.9978 22.2403 17.8657C22.2403 17.7336 22.2927 17.6069 22.3862 17.5135C22.4796 17.4201 22.6063 17.3676 22.7384 17.3676C23.0026 17.3676 23.256 17.2626 23.4428 17.0758C23.6297 16.889 23.7346 16.6356 23.7346 16.3713V13.3827C23.7346 13.1184 23.6297 12.865 23.4428 12.6782C23.256 12.4914 23.0026 12.3864 22.7384 12.3864C22.6063 12.3864 22.4796 12.3339 22.3862 12.2405C22.2927 12.1471 22.2403 12.0204 22.2403 11.8883C22.2403 11.7562 22.2927 11.6295 22.3862 11.5361C22.4796 11.4427 22.6063 11.3902 22.7384 11.3902C23.0026 11.3902 23.256 11.2852 23.4428 11.0984C23.6297 10.9116 23.7346 10.6582 23.7346 10.394V7.40526C23.7346 7.14104 23.6297 6.88765 23.4428 6.70082C23.256 6.51399 23.0026 6.40903 22.7384 6.40903C22.6063 6.40903 22.4796 6.35655 22.3862 6.26313C22.2927 6.16972 22.2403 6.04302 22.2403 5.91091C22.2403 5.77881 22.2927 5.65211 22.3862 5.55869C22.4796 5.46528 22.6063 5.4128 22.7384 5.4128ZM21.7422 3.62954C21.2987 3.82374 20.9215 4.14294 20.6567 4.54811C20.3918 4.95328 20.2507 5.42685 20.2507 5.91091C20.2507 6.39498 20.3918 6.86855 20.6567 7.27372C20.9215 7.67889 21.2987 7.99809 21.7422 8.19228V9.60693C21.2987 9.80113 20.9215 10.1203 20.6567 10.5255C20.3918 10.9307 20.2507 11.4042 20.2507 11.8883C20.2507 12.3724 20.3918 12.8459 20.6567 13.2511C20.9215 13.6563 21.2987 13.9755 21.7422 14.1697V15.5843C21.2987 15.7785 20.9215 16.0977 20.6567 16.5029C20.3918 16.9081 20.2507 17.3816 20.2507 17.8657C20.2507 18.3498 20.3918 18.8233 20.6567 19.2285C20.9215 19.6337 21.2987 19.9529 21.7422 20.1471V21.3525H20.5367C20.3425 20.9091 20.0233 20.5319 19.6181 20.267C19.213 20.0022 18.7394 19.8611 18.2553 19.8611C17.7713 19.8611 17.2977 20.0022 16.8925 20.267C16.4874 20.5319 16.1682 20.9091 15.974 21.3525H14.5593C14.3651 20.9091 14.0459 20.5319 13.6408 20.267C13.2356 20.0022 12.762 19.8611 12.278 19.8611C11.7939 19.8611 11.3203 20.0022 10.9151 20.267C10.51 20.5319 10.1908 20.9091 9.99658 21.3525H8.58193C8.38774 20.9091 8.06854 20.5319 7.66337 20.267C7.2582 20.0022 6.78463 19.8611 6.30056 19.8611C5.8165 19.8611 5.34292 20.0022 4.93776 20.267C4.53259 20.5319 4.21339 20.9091 4.01919 21.3525H2.81375V20.1471C3.25716 19.9529 3.63436 19.6337 3.89923 19.2285C4.1641 18.8233 4.30516 18.3498 4.30516 17.8657C4.30516 17.3816 4.1641 16.9081 3.89923 16.5029C3.63436 16.0977 3.25716 15.7785 2.81375 15.5843V14.1697C3.25716 13.9755 3.63436 13.6563 3.89923 13.2511C4.1641 12.8459 4.30516 12.3724 4.30516 11.8883C4.30516 11.4042 4.1641 10.9307 3.89923 10.5255C3.63436 10.1203 3.25716 9.80113 2.81375 9.60693V8.19228C3.25716 7.99809 3.63436 7.67889 3.89923 7.27372C4.1641 6.86855 4.30516 6.39498 4.30516 5.91091C4.30516 5.42685 4.1641 4.95328 3.89923 4.54811C3.63436 4.14294 3.25716 3.82374 2.81375 3.62954V2.4241H4.01919C4.21339 2.86751 4.53259 3.24471 4.93776 3.50958C5.34292 3.77445 5.8165 3.91552 6.30056 3.91552C6.78463 3.91552 7.2582 3.77445 7.66337 3.50958C8.06854 3.24471 8.38774 2.86751 8.58193 2.4241H9.99658C10.1908 2.86751 10.51 3.24471 10.9151 3.50958C11.3203 3.77445 11.7939 3.91552 12.278 3.91552C12.762 3.91552 13.2356 3.77445 13.6408 3.50958C14.0459 3.24471 14.3651 2.86751 14.5593 2.4241H15.974C16.1682 2.86751 16.4874 3.24471 16.8925 3.50958C17.2977 3.77445 17.7713 3.91552 18.2553 3.91552C18.7394 3.91552 19.213 3.77445 19.6181 3.50958C20.0233 3.24471 20.3425 2.86751 20.5367 2.4241H21.7422V3.62954ZM12.278 4.91468C10.4284 4.91468 8.65466 5.6494 7.34686 6.95721C6.03905 8.26502 5.30433 10.0388 5.30433 11.8883C5.30433 13.7378 6.03905 15.5116 7.34686 16.8194C8.65466 18.1272 10.4284 18.8619 12.278 18.8619C13.5027 18.8646 14.7061 18.5414 15.7648 17.9255C15.8838 17.8632 15.989 17.7775 16.0741 17.6735C16.1592 17.5695 16.2223 17.4493 16.2598 17.3203C16.2972 17.1913 16.3081 17.056 16.2919 16.9226C16.2757 16.7892 16.2327 16.6605 16.1655 16.5442C16.0983 16.4278 16.0082 16.3263 15.9007 16.2457C15.7932 16.1651 15.6705 16.1071 15.54 16.0751C15.4095 16.0431 15.2739 16.0379 15.1413 16.0597C15.0087 16.0815 14.8819 16.1299 14.7685 16.202C13.8189 16.7502 12.7149 16.9698 11.6278 16.8267C10.5406 16.6836 9.53108 16.1857 8.75572 15.4104C7.98036 14.635 7.48252 13.6254 7.3394 12.5383C7.19629 11.4512 7.4159 10.3472 7.96417 9.39754C8.51245 8.44793 9.35875 7.70576 10.3718 7.28616C11.3849 6.86655 12.5081 6.79295 13.5673 7.07677C14.6264 7.36059 15.5623 7.98598 16.2298 8.85593C16.8973 9.72588 17.2591 10.7918 17.2591 11.8883V12.3864C17.2591 12.495 17.2377 12.6025 17.1962 12.7028C17.1546 12.8032 17.0937 12.8943 17.0169 12.9711C16.9401 13.0479 16.849 13.1088 16.7487 13.1503C16.6483 13.1919 16.5408 13.2133 16.4322 13.2133C16.212 13.2133 16.0007 13.1265 15.844 12.9717C15.6873 12.8169 15.598 12.6066 15.5954 12.3864V9.56708C15.5902 9.36295 15.5224 9.16533 15.4012 9.001C15.28 8.83667 15.1112 8.71355 14.9177 8.64832C14.7242 8.5831 14.5153 8.57891 14.3194 8.63633C14.1234 8.69375 13.9498 8.81 13.8221 8.96934C13.3487 8.70985 12.8178 8.57286 12.278 8.57085C11.3981 8.57085 10.5543 8.92037 9.93216 9.54251C9.31002 10.1647 8.9605 11.0085 8.9605 11.8883C8.9605 12.7681 9.31002 13.612 9.93216 14.2341C10.5543 14.8562 11.3981 15.2058 12.278 15.2058C13.074 15.2059 13.8427 14.9154 14.4398 14.3888C14.8359 14.7779 15.3377 15.0418 15.8827 15.1477C16.4277 15.2536 16.9918 15.1969 17.5048 14.9844C18.0178 14.772 18.4569 14.4134 18.7675 13.9532C19.0781 13.493 19.2465 12.9516 19.2516 12.3964V11.8883C19.2516 10.0388 18.5169 8.26502 17.209 6.95721C15.9012 5.6494 14.1275 4.91468 12.278 4.91468ZM12.278 13.2133C12.0159 13.2133 11.7597 13.1356 11.5418 12.99C11.3239 12.8444 11.1541 12.6375 11.0538 12.3954C10.9535 12.1532 10.9273 11.8868 10.9784 11.6298C11.0295 11.3728 11.1557 11.1367 11.341 10.9514C11.5263 10.7661 11.7624 10.6399 12.0195 10.5888C12.2765 10.5376 12.5429 10.5639 12.785 10.6642C13.0271 10.7645 13.234 10.9343 13.3796 11.1522C13.5252 11.3701 13.6029 11.6262 13.6029 11.8883C13.6043 12.0627 13.5709 12.2356 13.5048 12.3969C13.4387 12.5583 13.3411 12.7049 13.2178 12.8282C13.0945 12.9515 12.9479 13.049 12.7866 13.1151C12.6252 13.1813 12.4523 13.2146 12.278 13.2133Z" fill="white"/>
</svg>
