<svg width="20" height="19" viewBox="0 0 20 19" fill="none" xmlns="http://www.w3.org/2000/svg">
<path d="M11.6469 12.0857L8.04761 18.1093C9.40886 18.403 10.8214 18.3945 12.1787 18.0842C13.5361 17.774 14.8027 17.1701 15.883 16.3182L12.5052 10.66M1.24588 12.0857C2.09494 14.6876 4.153 16.7727 6.77402 17.735L10.161 12.0857M6.85708 9.41253L3.25779 3.39789C1.68421 5.03141 0.81316 7.18171 0.821346 9.41253C0.821346 10.0185 0.885949 10.6155 1.00593 11.1947H7.91841M19.0947 7.63042H12.1822L12.4498 8.07595L16.8428 15.4272C18.4108 13.7903 19.281 11.6422 19.2792 9.41253C19.2792 8.7977 19.2146 8.2007 19.0947 7.63042ZM18.8547 6.73936C18.0056 4.12856 15.9476 2.05239 13.3266 1.09005L9.93955 6.73936M7.65077 8.07595L12.053 0.715807C11.4069 0.582148 10.7425 0.501953 10.0503 0.501953C7.83535 0.501953 5.80498 1.25044 4.2176 2.50683L7.59539 8.16505L7.65077 8.07595Z" fill="white"/>
</svg>
