<svg width="23" height="25" viewBox="0 0 23 25" fill="none" xmlns="http://www.w3.org/2000/svg">
<path fill-rule="evenodd" clip-rule="evenodd" d="M5.91309 5.99945C5.91309 3.01154 8.33527 0.589355 11.3232 0.589355C14.3111 0.589355 16.7333 3.01154 16.7333 5.99945C16.7333 8.98736 14.3111 11.4095 11.3232 11.4095C8.33527 11.4095 5.91309 8.98736 5.91309 5.99945ZM11.6407 12.0454C5.66528 12.0459 0.821289 16.9678 0.821289 23.0392C0.821289 23.6463 1.30573 24.1386 1.90331 24.1386C2.50089 24.1386 2.98533 23.6463 2.98533 23.0392C2.98533 18.6928 6.08843 15.0828 10.1664 14.3714L8.50493 19.9674C8.40168 20.3152 8.47115 20.6934 8.69047 20.9775L10.8121 23.726C11.0134 23.9867 11.3182 24.1386 11.6404 24.1386C11.9627 24.1386 12.2674 23.9867 12.4688 23.726L14.5904 20.9775C14.8097 20.6934 14.8792 20.3152 14.7759 19.9674L13.1143 14.371C17.1934 15.0814 20.2976 18.692 20.2976 23.0392C20.2976 23.6463 20.7821 24.1386 21.3796 24.1386C21.9772 24.1386 22.4617 23.6463 22.4617 23.0392C22.4617 16.9676 17.6172 12.0454 11.6415 12.0454C11.6412 12.0454 11.6409 12.0454 11.6407 12.0454Z" fill="white"/>
</svg>
