<svg width="27" height="27" viewBox="0 0 27 27" fill="none" xmlns="http://www.w3.org/2000/svg">
<path fill-rule="evenodd" clip-rule="evenodd" d="M11.6945 0.0151367H18.2184V1.10246H26.917V18.4996H22.5677V16.325H24.7424V3.2771L18.2184 3.2771V4.36443H11.6945V3.2771L5.17058 3.2771V5.45175H2.99593V1.10246H11.6945V0.0151367ZM4.42905 7.97218C5.34665 7.05458 6.59119 6.53907 7.88888 6.53907C9.18658 6.53907 10.4311 7.05458 11.3487 7.97218C12.2663 8.88979 12.7818 10.1343 12.7818 11.432C12.7818 12.078 12.6541 12.7108 12.4126 13.2966C14.2079 12.617 15.777 11.6121 17.0635 10.583C18.1952 9.67759 19.086 8.77071 19.6924 8.09148C19.9951 7.75249 20.2254 7.47193 20.378 7.27898C20.4543 7.18256 20.511 7.10817 20.5475 7.05948C20.5658 7.03514 20.579 7.01724 20.587 7.00623L20.5952 6.99496L20.596 6.99387C20.5958 6.99412 20.5956 6.9944 21.4804 7.62639C22.3652 8.25839 22.365 8.25872 22.3647 8.25909L22.3624 8.26224L22.3577 8.26885C22.3538 8.27418 22.3486 8.28132 22.3421 8.29022C22.3291 8.30802 22.3108 8.33286 22.2872 8.36426C22.2401 8.42707 22.1721 8.5162 22.0837 8.6279C21.9072 8.85119 21.649 9.16526 21.3146 9.53983C21.2062 9.66123 21.0896 9.78918 20.965 9.9226L22.8365 11.7941L22.4245 12.5151C20.1596 16.4787 18.1331 18.0986 16.6364 19.0715C16.44 19.1991 16.2153 19.3388 16.0233 19.4582C15.903 19.533 15.7955 19.5998 15.716 19.6506C15.4597 19.8144 15.2994 19.9303 15.1881 20.0341C15.0884 20.127 15.0452 20.1946 15.0189 20.2566C14.9907 20.3231 14.9565 20.4441 14.9565 20.6743V26.1109H0.821289V20.6743C0.821289 18.1204 1.96766 16.4286 3.48012 15.4203C3.78689 15.2157 4.10581 15.041 4.42967 14.8925C4.42946 14.8923 4.42925 14.8921 4.42905 14.8919C3.51144 13.9743 2.99593 12.7297 2.99593 11.432C2.99593 10.1343 3.51144 8.88979 4.42905 7.97218ZM7.88888 14.1503C8.60982 14.1503 9.30124 13.8639 9.81102 13.3542C10.3208 12.8444 10.6072 12.153 10.6072 11.432C10.6072 10.7111 10.3208 10.0197 9.81102 9.50989C9.30124 9.00011 8.60982 8.71372 7.88888 8.71372C7.16794 8.71372 6.47653 9.00011 5.96675 9.50989C5.45697 10.0197 5.17058 10.7111 5.17058 11.432C5.17058 12.153 5.45697 12.8444 5.96675 13.3542C6.47653 13.8639 7.16794 14.1503 7.88888 14.1503ZM7.88888 16.325C6.94649 16.325 5.68069 16.5668 4.68639 17.2297C3.75237 17.8524 2.99593 18.8788 2.99593 20.6743V23.9362H12.7818V20.6743C12.7818 20.2249 12.8495 19.8022 13.0167 19.4078C13.1858 19.009 13.4315 18.6986 13.7055 18.4432C13.9679 18.1987 14.2664 17.9961 14.5452 17.818C14.688 17.7268 14.8096 17.6515 14.9311 17.5764C15.0894 17.4784 15.2474 17.3807 15.4512 17.2482C16.5898 16.5081 18.2128 15.2675 20.1158 12.1488L19.4109 11.4439C19.1032 11.7191 18.7733 12.0001 18.422 12.2811C15.9421 14.265 12.3092 16.325 7.88888 16.325Z" fill="white"/>
</svg>
