<svg width="26" height="24" viewBox="0 0 26 24" fill="none" xmlns="http://www.w3.org/2000/svg">
<path d="M24.4029 5.8731H16.9561C16.6269 5.8731 16.3112 6.00722 16.0785 6.24594C15.8457 6.48467 15.715 6.80845 15.715 7.14606V10.9649H13.2327V2.05421C13.2327 1.7166 13.1019 1.39282 12.8692 1.15409C12.6364 0.915365 12.3207 0.78125 11.9915 0.78125H2.06243C1.73326 0.78125 1.41757 0.915365 1.18481 1.15409C0.952051 1.39282 0.821289 1.7166 0.821289 2.05421V22.4216C0.821289 22.7592 0.952051 23.083 1.18481 23.3217C1.41757 23.5605 1.73326 23.6946 2.06243 23.6946H24.4029C24.7321 23.6946 25.0478 23.5605 25.2805 23.3217C25.5133 23.083 25.6441 22.7592 25.6441 22.4216V7.14606C25.6441 6.80845 25.5133 6.48467 25.2805 6.24594C25.0478 6.00722 24.7321 5.8731 24.4029 5.8731ZM8.26812 4.60014H10.7504V7.14606H8.26812V4.60014ZM5.78584 17.3298H3.30357V14.7838H5.78584V17.3298ZM5.78584 12.2379H3.30357V9.69199H5.78584V12.2379ZM5.78584 7.14606H3.30357V4.60014H5.78584V7.14606ZM10.7504 17.3298H8.26812V14.7838H10.7504V17.3298ZM10.7504 12.2379H8.26812V9.69199H10.7504V12.2379ZM21.9206 17.3298H19.4384V14.7838H21.9206V17.3298ZM21.9206 12.2379H19.4384V9.69199H21.9206V12.2379Z" fill="white"/>
</svg>
