<svg width="24" height="24" viewBox="0 0 24 24" fill="none" xmlns="http://www.w3.org/2000/svg">
<path fill-rule="evenodd" clip-rule="evenodd" d="M9.22284 2.26177C5.7428 2.26177 2.92168 5.08289 2.92168 8.56293C2.92168 11.5004 4.93163 13.9683 7.65125 14.6665V8.56264C7.65125 7.98264 8.12143 7.51245 8.70144 7.51245H15.4368C14.9367 4.53244 12.345 2.26177 9.22284 2.26177ZM17.5594 7.51245C17.0424 3.36819 13.5071 0.161377 9.22284 0.161377C4.58279 0.161377 0.821289 3.92287 0.821289 8.56293C0.821289 12.6659 3.76233 16.0819 7.65125 16.8177V22.2152C7.65125 22.7952 8.12143 23.2654 8.70144 23.2654H22.354C22.934 23.2654 23.4042 22.7952 23.4042 22.2152V8.56264C23.4042 7.98264 22.934 7.51245 22.354 7.51245H17.5594Z" fill="white"/>
</svg>
